<svg width="23px" height="20px" viewBox="0 0 23 20" version="1.1" xmlns="http://www.w3.org/2000/svg" xmlns:xlink="http://www.w3.org/1999/xlink">

<path class="control__path" d="M688.244277,17.7815688 C688.576619,17.814804 688.850799,17.9477383 689.06682,18.1803783 C689.282844,18.4130182 689.374238,18.6788902 689.341003,18.9779973 L688.643086,32.0888604 C688.609851,32.4212034 688.476917,32.6870738 688.244277,32.8864795 C688.011637,33.0858852 687.729149,33.1689697 687.396806,33.1357354 L670.945914,32.3381164 C670.613571,32.3048822 670.339391,32.1885638 670.123369,31.9891581 C669.907346,31.7897523 669.815953,31.523882 669.849187,31.191539 L669.94889,28.8983842 L669.201122,28.9482354 C668.902013,28.9814706 668.644451,28.9066922 668.428428,28.7239067 C668.212405,28.5411179 668.087779,28.3167892 668.054545,28.050914 L667.00767,16.2860331 C666.974435,16.0201579 667.049211,15.7792132 667.232,15.5631924 C667.414789,15.3471684 667.655733,15.2225421 667.954842,15.1893069 L682.710795,13.9928783 C683.009902,13.9596431 683.267466,14.0344215 683.483486,14.2172071 C683.69951,14.3999958 683.824137,14.6243246 683.857372,14.8901997 L684.106628,17.582164 L688.244277,17.7815688 Z M670.547104,18.0806759 C670.580339,17.7815688 670.704966,17.5240048 670.920986,17.3079809 C671.13701,17.0919601 671.41119,16.9839497 671.743533,16.9839497 L682.660943,17.5323128 L682.561241,15.9869259 L682.51139,15.9869259 L682.51139,15.9370747 C682.444923,15.6711996 682.278753,15.5382652 682.012878,15.5382652 L669.001717,16.6349914 C668.669374,16.6349914 668.503205,16.784545 668.503205,17.0836521 L668.503205,17.1335033 L669.300824,26.0070152 L670.198146,24.7607354 L670.547104,18.0806759 Z M687.197402,29.8455569 L687.695914,19.9750212 L687.695914,19.92517 C687.695914,19.5928276 687.513128,19.4266581 687.14755,19.4266581 L684.256181,19.2771045 L682.810497,19.1774021 L672.640854,18.7287414 C672.308512,18.7287414 672.109107,18.878295 672.04264,19.1774021 L672.04264,19.2272533 L671.893086,22.3678783 L671.544128,28.7488307 L671.544128,29.097789 L671.843235,28.7488307 L676.928056,23.3150509 C677.127461,23.1156462 677.360098,23.0159438 677.625973,23.0159438 C677.92508,23.0159438 678.157717,23.1322622 678.32389,23.3649021 L680.467491,25.8076104 L680.617045,25.957164 C680.749982,26.0901016 680.916152,26.1565688 681.115556,26.1565688 C681.215259,26.1565688 681.364812,26.1067176 681.564217,26.0070152 L682.411687,25.4088009 C682.57786,25.2758633 682.760646,25.2093962 682.96005,25.2093962 C683.225926,25.2093962 683.408711,25.2924793 683.508414,25.4586521 L684.854396,27.1037414 L687.197402,29.8455569 Z M684.006925,23.863414 C683.50841,23.863414 683.092988,23.6972444 682.760646,23.3649021 C682.428303,23.0325598 682.262134,22.6171374 682.262134,22.1186223 C682.262134,21.6201072 682.436611,21.2046849 682.78557,20.8723426 C683.134531,20.5400002 683.541646,20.3738307 684.006925,20.3738307 C684.505441,20.3738307 684.920863,20.5483082 685.253205,20.8972666 C685.585548,21.2462281 685.751717,21.6533424 685.751717,22.1186223 C685.751717,22.5839022 685.57724,22.9910166 685.228281,23.3399781 C684.87932,23.6889364 684.472205,23.863414 684.006925,23.863414 L684.006925,23.863414 Z" fill="#000" transform="translate(-667.000000, -14.000000)">
</path>
</svg>