<svg width="23px" height="20px" viewBox="0 0 23 20" version="1.1" xmlns="http://www.w3.org/2000/svg" xmlns:xlink="http://www.w3.org/1999/xlink">
            <path class="control__path" d="M726.495398,32.5811843 C726.575395,32.4375885 726.624624,32.273481 726.643086,32.0888604 L727.341003,18.9779973 C727.374238,18.6788902 727.282844,18.4130182 727.06682,18.1803783 C726.850799,17.9477383 726.576619,17.814804 726.244277,17.7815688 L722.106628,17.582164 L721.857372,14.8901997 C721.824137,14.6243246 721.69951,14.3999958 721.483486,14.2172071 C721.267466,14.0344215 721.009902,13.9596431 720.710795,13.9928783 L708.86737,14.953156 L704.832738,10.9185245 L703.418525,12.3327381 L726.753048,35.6672619 L728.167262,34.2530483 L726.495398,32.5811843 Z M710.273429,16.359215 L720.012878,15.5382652 C720.278753,15.5382652 720.444923,15.6711996 720.51139,15.9370747 L720.51139,15.9869259 L720.561241,15.9869259 L720.660943,17.5323128 L710.959225,17.0450119 L710.273429,16.359215 Z M712.73536,18.821146 L720.810497,19.1774021 L722.256181,19.2771045 L725.14755,19.4266581 C725.513128,19.4266581 725.695914,19.5928276 725.695914,19.92517 L725.695914,19.9750212 L725.197402,29.8455569 L722.854396,27.1037414 L721.508414,25.4586521 C721.408711,25.2924793 721.225926,25.2093962 720.96005,25.2093962 C720.760646,25.2093962 720.57786,25.2758633 720.411687,25.4088009 L719.7735,25.8592863 L712.73536,18.821146 Z M721.4276,32.943289 L708.945914,32.3381164 C708.613571,32.3048822 708.339391,32.1885638 708.123369,31.9891581 C707.907346,31.7897523 707.815953,31.523882 707.849187,31.191539 L707.94889,28.8983842 L707.201122,28.9482354 C706.902013,28.9814706 706.644451,28.9066922 706.428428,28.7239067 C706.212405,28.5411179 706.087779,28.3167892 706.054545,28.050914 L705.03085,16.5465397 L706.590651,18.1063408 L707.300824,26.0070152 L708.198146,24.7607354 L708.448701,19.9643905 L709.936682,21.4523712 L709.893086,22.3678783 L709.544128,28.7488307 L709.544128,29.097789 L709.843235,28.7488307 L713.415607,24.9312962 L721.4276,32.943289 Z M722.006925,23.863414 C721.50841,23.863414 721.092988,23.6972444 720.760646,23.3649021 C720.428303,23.0325598 720.262134,22.6171374 720.262134,22.1186223 C720.262134,21.6201072 720.436611,21.2046849 720.78557,20.8723426 C721.134531,20.5400002 721.541646,20.3738307 722.006925,20.3738307 C722.505441,20.3738307 722.920863,20.5483082 723.253205,20.8972666 C723.585548,21.2462281 723.751717,21.6533424 723.751717,22.1186223 C723.751717,22.5839022 723.57724,22.9910166 723.228281,23.3399781 C722.87932,23.6889364 722.472205,23.863414 722.006925,23.863414 Z" fill="#000" transform="translate(-704.000000, -14.000000)">
            </path>
</svg>